<svg width="59" height="58" viewBox="0 0 59 58" fill="none" xmlns="http://www.w3.org/2000/svg">
<g clip-path="url(#clip0)">
<path d="M29.7714 19.1497C26.3397 19.1497 23.5478 21.9447 23.5478 25.3803C23.5478 28.2269 25.465 30.6318 28.0741 31.3736V50.7562C28.0741 51.6947 28.834 52.4555 29.7714 52.4555C30.7088 52.4555 31.4688 51.6947 31.4688 50.7562V31.3736C34.0779 30.6319 35.9951 28.2269 35.9951 25.3803C35.9951 21.9447 33.2031 19.1497 29.7714 19.1497ZM29.7714 28.2125C28.2116 28.2125 26.9425 26.942 26.9425 25.3803C26.9425 23.8187 28.2116 22.5482 29.7714 22.5482C31.3313 22.5482 32.6004 23.8187 32.6004 25.3803C32.6004 26.942 31.3313 28.2125 29.7714 28.2125Z" fill="white"/>
<path d="M21.919 16.2956C21.2563 15.6319 20.1816 15.6319 19.5186 16.2956C14.2562 21.5637 14.2554 30.0916 19.5186 35.3605C20.1816 36.0241 21.2561 36.0241 21.919 35.3605C22.5819 34.6969 22.5819 33.621 21.919 32.9573C17.9834 29.0174 17.9827 22.6393 21.919 18.6987C22.5819 18.0351 22.5819 16.9591 21.919 16.2956Z" fill="white"/>
<path d="M40.0241 16.2955C39.3614 15.632 38.2866 15.632 37.6237 16.2955C36.9609 16.959 36.9609 18.035 37.6237 18.6986C41.5504 22.6297 41.5504 29.0261 37.6237 32.9572C36.9609 33.6208 36.9609 34.6967 37.6237 35.3604C38.2867 36.024 39.3613 36.024 40.0241 35.3604C45.2745 30.1043 45.2745 21.5516 40.0241 16.2955Z" fill="white"/>
<path d="M16.7981 13.5719C17.461 12.9084 17.461 11.8324 16.7981 11.1688C16.1354 10.5053 15.0606 10.5053 14.3977 11.1688C6.32373 19.2519 6.32373 32.404 14.3977 40.4871C15.0604 41.1506 16.1351 41.151 16.7981 40.4871C17.461 39.8236 17.461 38.7476 16.7981 38.084C10.0478 31.326 10.0478 20.3299 16.7981 13.5719Z" fill="white"/>
<path d="M45.1452 11.1688C44.4824 10.5053 43.4077 10.5053 42.7448 11.1688C42.0819 11.8323 42.0819 12.9083 42.7448 13.5719C49.4951 20.3299 49.4951 31.326 42.7448 38.084C42.0819 38.7475 42.0819 39.8235 42.7448 40.4871C43.4078 41.1507 44.4823 41.1507 45.1452 40.4871C53.2192 32.404 53.2192 19.2519 45.1452 11.1688Z" fill="white"/>
<path d="M11.6772 8.44519C12.3401 7.78167 12.3401 6.70569 11.6772 6.04207C11.0144 5.37856 9.93965 5.37856 9.27677 6.04207C-2.03227 17.3638 -2.00771 34.3166 9.27677 45.6138C9.93942 46.2774 11.0142 46.2777 11.6772 45.6138C12.3401 44.9503 12.3401 43.8743 11.6772 43.2107C1.77875 33.3009 1.77875 18.355 11.6772 8.44519Z" fill="white"/>
<path d="M50.266 6.04207C49.6033 5.37856 48.5285 5.37856 47.8656 6.04207C47.2028 6.70558 47.2028 7.78156 47.8656 8.44519C57.7643 18.355 57.7643 33.3009 47.8656 43.2107C47.2028 43.8742 47.2028 44.9502 47.8656 45.6138C48.5286 46.2775 49.6032 46.2775 50.266 45.6138C61.5749 34.2922 61.5506 17.3393 50.266 6.04207Z" fill="white"/>
</g>
<defs>
<clipPath id="clip0">
<rect width="57.9344" height="58" fill="white" transform="translate(0.80426)"/>
</clipPath>
</defs>
</svg>
