<svg width="20" height="25" viewBox="0 0 20 25" fill="none" xmlns="http://www.w3.org/2000/svg">
<path d="M11.6369 23.4974C11.6524 23.3951 11.6595 23.2916 11.6582 23.188V5.55097L11.8251 5.93555C11.9911 6.31146 12.217 6.65345 12.4925 6.94619L17.1062 11.892C17.6862 12.5434 18.6193 12.6529 19.3171 12.1514C20.0606 11.5678 20.222 10.4485 19.6776 9.65143C19.6336 9.58703 19.5856 9.52583 19.534 9.46831L11.191 0.524617C10.5398 -0.174332 9.4833 -0.174947 8.8313 0.52322C8.83088 0.523667 8.83041 0.52417 8.83 0.524617L0.487066 9.46831C-0.16363 10.1678 -0.162171 11.3004 0.490351 11.998C0.541712 12.0529 0.596358 12.1041 0.653924 12.1514C1.35165 12.6529 2.28476 12.5434 2.8648 11.892L7.48678 6.95513C7.73186 6.69269 7.93735 6.39095 8.09582 6.06076L8.32108 5.52414V23.0895C8.28943 24.0033 8.88485 24.805 9.72269 24.9767C10.6323 25.1348 11.4893 24.4725 11.6369 23.4974Z" fill="white"/>
</svg>
