<svg width="30" height="30" viewBox="0 0 30 30" fill="none" xmlns="http://www.w3.org/2000/svg">
<path d="M24.9948 4.41925H21.0503C17.9798 4.41925 15.4818 6.91727 15.4818 9.98772V13.3168H12.3603C12.0369 13.3168 11.7744 13.5791 11.7744 13.9027V18.4108C11.7744 18.7344 12.0369 18.9967 12.3603 18.9967H15.4818V28.8281H1.75781C1.43463 28.8281 1.17188 28.5654 1.17188 28.2422V1.75781C1.17188 1.43463 1.43463 1.17188 1.75781 1.17188H2.92969C3.25333 1.17188 3.51562 0.909576 3.51562 0.585938C3.51562 0.262299 3.25333 0 2.92969 0H1.75781C0.788498 0 0 0.788498 0 1.75781V28.2422C0 29.2115 0.788498 30 1.75781 30H16.0677C16.3914 30 16.6537 29.7377 16.6537 29.4141V18.4108C16.6537 18.0872 16.3914 17.8249 16.0677 17.8249H12.9465V14.4884H16.0677C16.3914 14.4884 16.6537 14.2262 16.6537 13.9025V9.98772C16.6537 7.5634 18.6259 5.5909 21.0505 5.5909H24.4091V8.92708H21.0505C20.4755 8.92708 19.9899 9.41277 19.9899 9.98772V13.9025C19.9899 14.2262 20.2522 14.4884 20.5758 14.4884H24.3269L23.8879 17.8249H20.5758C20.2524 17.8249 19.9899 18.0872 19.9899 18.4108V29.4141C19.9899 29.7377 20.2524 30 20.5758 30H22.3828C22.7065 30 22.9688 29.7377 22.9688 29.4141C22.9688 29.0904 22.7065 28.8281 22.3828 28.8281H21.1617V18.9967H24.4018C24.6959 18.9967 24.9445 18.7786 24.9827 18.4872L25.5759 13.979C25.5979 13.8119 25.5469 13.6432 25.4356 13.5164C25.3244 13.3894 25.1637 13.3168 24.995 13.3168H21.162V10.0992H24.995C25.3187 10.0992 25.581 9.83688 25.581 9.51324V5.00519C25.5807 4.68155 25.3185 4.41925 24.9948 4.41925Z" fill="white" fill-opacity="0.6"/>
<path d="M28.2422 0H7.61719C7.29355 0 7.03125 0.262299 7.03125 0.585938C7.03125 0.909576 7.29355 1.17188 7.61719 1.17188H28.2422C28.5654 1.17188 28.8281 1.43463 28.8281 1.75781V28.2422C28.8281 28.5654 28.5654 28.8281 28.2422 28.8281H27.0703C26.7467 28.8281 26.4844 29.0904 26.4844 29.4141C26.4844 29.7377 26.7467 30 27.0703 30H28.2422C29.2115 30 30 29.2115 30 28.2422V1.75781C30 0.788498 29.2115 0 28.2422 0Z" fill="white" fill-opacity="0.6"/>
<path d="M24.7268 28.8281H24.7263C24.4027 28.8281 24.1406 29.0904 24.1406 29.4141C24.1406 29.7377 24.4032 30 24.7268 30C25.0504 30 25.3127 29.7377 25.3127 29.4141C25.3127 29.0904 25.0504 28.8281 24.7268 28.8281Z" fill="white" fill-opacity="0.6"/>
<path d="M5.27367 1.17188C5.59731 1.17188 5.8596 0.909576 5.8596 0.585938C5.8596 0.262299 5.59731 0 5.27367 0H5.27321C4.94957 0 4.6875 0.262299 4.6875 0.585938C4.6875 0.909576 4.95003 1.17188 5.27367 1.17188Z" fill="white" fill-opacity="0.6"/>
</svg>
