<svg width="79" height="80" viewBox="0 0 79 80" fill="none" xmlns="http://www.w3.org/2000/svg">
<path d="M78.6431 39.9822C78.6431 61.9905 61.1173 79.8318 39.4981 79.8318C17.879 79.8318 0.353149 61.9905 0.353149 39.9822C0.353149 17.9739 17.879 0.13269 39.4981 0.13269C61.1173 0.13269 78.6431 17.9739 78.6431 39.9822ZM2.98342 39.9822C2.98342 60.5117 19.3316 77.1542 39.4981 77.1542C59.6647 77.1542 76.0128 60.5117 76.0128 39.9822C76.0128 19.4527 59.6647 2.8103 39.4981 2.8103C19.3316 2.8103 2.98342 19.4527 2.98342 39.9822Z" fill="white"/>
<g clip-path="url(#clip0)">
<path d="M58.1742 48.5638C57.7435 48.5638 57.3162 48.6378 56.9043 48.7839L44.8017 53.0756C44.8544 52.8192 44.8822 52.5538 44.8822 52.2819C44.8822 50.1315 43.1481 48.3821 41.0166 48.3821H29.7049C26.2045 48.3821 22.9135 49.7573 20.4384 52.2544L18.0102 54.704V62.6814H46.0099L59.8432 55.8828C61.1473 55.2419 61.9898 53.8823 61.9898 52.4189C61.9899 50.2932 60.2782 48.5638 58.1742 48.5638ZM58.7148 53.5456L45.4157 60.0817H20.5871V55.7809L22.2605 54.0927C24.249 52.0866 26.8928 50.9819 29.7049 50.9819H41.0165C41.727 50.9819 42.3051 51.5651 42.3051 52.282C42.3051 52.9988 41.727 53.5819 41.0165 53.5819H32.8276V56.1817H43.8135L57.7587 51.2366C57.8954 51.1882 58.0352 51.1636 58.1741 51.1636C58.7699 51.1636 59.4129 51.6436 59.4129 52.4189C59.413 52.8949 59.139 53.3371 58.7148 53.5456Z" fill="white"/>
<path d="M33.7127 36.5569C34.4081 37.1116 34.807 37.9328 34.807 38.81V42.1649L36.4025 45.5081H43.5977L45.1933 42.1649V38.8183C45.1933 37.9366 45.5938 37.1109 46.2922 36.5532C48.7403 34.5981 50.1443 31.6722 50.1443 28.526C50.1442 22.883 45.5935 18.292 40 18.292C39.8694 18.292 39.7368 18.2946 39.6059 18.2995C36.978 18.4003 34.5211 19.518 32.6876 21.4469C30.8552 23.3746 29.8495 25.8976 29.8559 28.551C29.8634 31.6897 31.2691 34.6078 33.7127 36.5569ZM41.9783 42.9083H38.0217L37.3838 41.5717V40.1099H42.6161V41.5717L41.9783 42.9083ZM34.5475 23.2463C35.9161 21.8067 37.7473 20.9724 39.7038 20.8975C39.8022 20.8937 39.9019 20.8917 40 20.8917C44.1726 20.8917 47.5672 24.3165 47.5672 28.5259C47.5672 30.8729 46.5194 33.0557 44.6926 34.5147C43.7236 35.2886 43.0597 36.3404 42.7745 37.51H37.2273C36.9432 36.3412 36.2798 35.2902 35.311 34.5175C33.4876 33.0629 32.4386 30.886 32.4329 28.5448C32.4281 26.5677 33.1791 24.6859 34.5475 23.2463Z" fill="white"/>
<path d="M23.4482 27.2482H27.2787V29.8479H23.4482V27.2482Z" fill="white"/>
<path d="M25.0214 21.3252L26.3099 19.0738L29.6271 21.006L28.3387 23.2574L25.0214 21.3252Z" fill="white"/>
<path d="M25.0211 35.7706L28.3384 33.8384L29.6268 36.0898L26.3096 38.022L25.0211 35.7706Z" fill="white"/>
<path d="M52.7209 27.2482H56.5515V29.8479H52.7209V27.2482Z" fill="white"/>
<path d="M50.3717 21.0059L53.689 19.0736L54.9774 21.325L51.6602 23.2572L50.3717 21.0059Z" fill="white"/>
<path d="M50.3722 36.0912L51.6607 33.8398L54.9779 35.772L53.6894 38.0234L50.3722 36.0912Z" fill="white"/>
</g>
<defs>
<clipPath id="clip0">
<rect width="44" height="44.3894" fill="white" transform="translate(18 18.292)"/>
</clipPath>
</defs>
</svg>
