<svg width="19" height="11" viewBox="0 0 19 11" fill="none" xmlns="http://www.w3.org/2000/svg">
<path d="M18.6488 1.58598C18.6488 1.56924 18.663 1.55293 18.6621 1.53638L13.1719 5.84621L18.6555 10.0184C18.6587 9.98857 18.6488 9.95852 18.6488 9.92808V1.58598Z" fill="#E93F34"/>
<path d="M12.3338 6.50952L10.0926 8.26632C9.97921 8.35521 9.83273 8.39979 9.68618 8.39979C9.54267 8.39979 9.39916 8.35712 9.28653 8.2716L7.0514 6.57473L1.53204 10.909C1.66625 10.9483 1.8103 10.9788 1.96115 10.9788H17.4113C17.6353 10.9788 17.8454 10.9232 18.0281 10.8403L12.3338 6.50952Z" fill="#E93F34"/>
<path d="M9.67979 7.26455L18.0585 0.688932C17.8688 0.597042 17.648 0.5354 17.4113 0.5354H1.96118C1.65298 0.5354 1.37058 0.632894 1.15063 0.781586L9.67979 7.26455Z" fill="#E93F34"/>
<path d="M0.671509 1.74634V9.92815C0.671509 10.0221 0.698006 10.1126 0.72677 10.1992L6.17765 5.9227L0.671509 1.74634Z" fill="#E93F34"/>
</svg>
