<svg width="21" height="20" viewBox="0 0 21 20" fill="none" xmlns="http://www.w3.org/2000/svg">
<g clip-path="url(#clip0)">
<path d="M17.6825 2.51508C16.0614 0.893203 13.9062 0 11.6137 0C9.3213 0 7.16606 0.893203 5.54507 2.51508C3.92407 4.13691 3.0313 6.29328 3.0313 8.58687C3.0313 10.6839 3.77794 12.6658 5.14473 14.2298L0.378342 18.9987C0.149399 19.2277 0.149399 19.5991 0.378342 19.8282C0.492814 19.9427 0.642853 20 0.792853 20C0.942853 20 1.09293 19.9427 1.20736 19.8282L5.97379 15.0593C7.53692 16.4268 9.51784 17.1738 11.6137 17.1738C13.9062 17.1738 16.0614 16.2806 17.6824 14.6588C19.3034 13.0369 20.1961 10.8805 20.1961 8.58691C20.1961 6.29328 19.3034 4.13691 17.6825 2.51508ZM16.8534 13.8293C13.9642 16.7199 9.26332 16.7199 6.37417 13.8293C3.48504 10.9386 3.48504 6.23523 6.37417 3.34461C7.81888 1.89914 9.71602 1.17664 11.6138 1.17664C13.5111 1.17664 15.409 1.89949 16.8534 3.34461C19.7424 6.2352 19.7424 10.9386 16.8534 13.8293Z" fill="white"/>
</g>
<defs>
<clipPath id="clip0">
<rect width="19.9896" height="20" fill="white" transform="translate(0.205627)"/>
</clipPath>
</defs>
</svg>
