<svg width="30" height="30" viewBox="0 0 30 30" fill="none" xmlns="http://www.w3.org/2000/svg">
<path d="M19.327 24.4624C17.9505 24.5091 16.4948 24.5327 15 24.5327C10.6789 24.5327 6.8557 24.3388 4.77242 24.0141C2.54654 23.6671 1.66214 22.63 1.39229 20.0514C1.09726 17.2302 1.09726 12.8103 1.39229 9.98909C1.66214 7.4105 2.54654 6.37367 4.77242 6.02668C5.13382 5.97015 5.5584 5.91659 6.0347 5.86715C6.35674 5.83374 6.59065 5.5458 6.55724 5.22377C6.52382 4.90196 6.23543 4.66781 5.91385 4.70146C5.41763 4.75296 4.97292 4.80926 4.59183 4.86854C3.20343 5.08506 2.23022 5.5513 1.52939 6.33568C0.808182 7.14225 0.394363 8.26446 0.226593 9.86732C-0.075531 12.757 -0.075531 17.2838 0.226593 20.1734C0.394363 21.7763 0.808182 22.8983 1.52939 23.7051C2.23022 24.4894 3.20343 24.9557 4.59183 25.172C6.73119 25.5057 10.6222 25.7048 15 25.7048C16.5079 25.7048 17.9771 25.681 19.3666 25.6338C19.69 25.6229 19.9434 25.3519 19.9324 25.0285C19.9214 24.705 19.6518 24.4517 19.327 24.4624Z" fill="white" fill-opacity="0.6"/>
<path d="M29.7735 9.86732C29.6058 8.26469 29.1919 7.14249 28.471 6.33568C27.7699 5.5513 26.7967 5.08507 25.4083 4.86877C23.2687 4.53506 19.3777 4.33594 15.0001 4.33594C13.4923 4.33594 12.0233 4.35997 10.6338 4.40689C10.3101 4.41788 10.0567 4.68887 10.0677 5.01228C10.0787 5.33592 10.3486 5.58975 10.6733 5.57831C12.0496 5.53162 13.5055 5.50804 15.0004 5.50804C19.321 5.50804 23.1444 5.7019 25.2279 6.02669C27.4536 6.3739 28.3382 7.41073 28.6078 9.98932C28.9031 12.8105 28.9031 17.2304 28.6078 20.0516C28.3382 22.6302 27.4536 23.6671 25.2279 24.0143C24.8665 24.0706 24.4417 24.1241 23.9654 24.1736C23.6436 24.207 23.4097 24.4949 23.4431 24.817C23.4745 25.1184 23.7288 25.3425 24.0252 25.3425C24.0455 25.3425 24.0659 25.3413 24.0865 25.3393C24.5825 25.2878 25.0272 25.2317 25.4083 25.1722C26.7967 24.9557 27.7699 24.4897 28.471 23.7053C29.1919 22.8985 29.6058 21.7763 29.7735 20.1736C30.0757 17.284 30.0757 12.757 29.7735 9.86732Z" fill="white" fill-opacity="0.6"/>
<path d="M19.829 14.5219L12.5766 10.0411C12.3958 9.92938 12.1688 9.92435 11.9831 10.0278C11.7977 10.1313 11.6826 10.3272 11.6826 10.5396V19.501C11.6826 19.7134 11.7977 19.9093 11.9831 20.0128C12.0722 20.0622 12.1704 20.0869 12.2686 20.0869C12.3757 20.0869 12.4823 20.0576 12.5766 19.9995L19.829 15.5189C20.0018 15.412 20.1071 15.2234 20.1071 15.0204C20.1071 14.8172 20.0018 14.6286 19.829 14.5219ZM12.8547 18.4502V11.5906L18.406 15.0204L12.8547 18.4502Z" fill="white" fill-opacity="0.6"/>
<path d="M8.31124 5.68562C8.32429 5.68562 8.33756 5.68517 8.35084 5.68448C8.67379 5.66296 8.91801 5.38373 8.89649 5.06078C8.87498 4.73782 8.59528 4.49315 8.27279 4.51489H8.27233C7.94938 4.53641 7.70539 4.81564 7.72691 5.1386C7.74751 5.44827 8.00523 5.68562 8.31124 5.68562Z" fill="white" fill-opacity="0.6"/>
<path d="M21.6497 24.3564C21.3268 24.3777 21.0823 24.6569 21.1039 24.9799C21.1245 25.2895 21.3822 25.5269 21.688 25.5269C21.7012 25.5269 21.7143 25.5264 21.7276 25.5258H21.728C22.051 25.5042 22.295 25.225 22.2734 24.9021C22.2519 24.5791 21.9731 24.3351 21.6497 24.3564Z" fill="white" fill-opacity="0.6"/>
</svg>
