<svg width="79" height="79" viewBox="0 0 79 79" fill="none" xmlns="http://www.w3.org/2000/svg">
<path d="M78.29 39.5C78.29 61.3152 60.7642 79 39.145 79C17.5258 79 0 61.3152 0 39.5C0 17.6848 17.5258 0 39.145 0C60.7642 0 78.29 17.6848 78.29 39.5ZM2.63027 39.5C2.63027 59.8494 18.9785 76.3459 39.145 76.3459C59.3115 76.3459 75.6597 59.8494 75.6597 39.5C75.6597 19.1506 59.3115 2.65413 39.145 2.65413C18.9785 2.65413 2.63027 19.1506 2.63027 39.5Z" fill="white"/>
<path d="M29.375 30.0625C29.7538 30.0625 30.0625 30.3705 30.0625 30.75H31.4375C31.4375 29.6129 30.5121 28.6875 29.375 28.6875C28.2379 28.6875 27.3125 29.6129 27.3125 30.75H28.6875C28.6875 30.3705 28.9962 30.0625 29.375 30.0625Z" fill="white"/>
<path d="M34.875 30.0625C35.2538 30.0625 35.5625 30.3705 35.5625 30.75H36.9375C36.9375 29.6129 36.0121 28.6875 34.875 28.6875C33.7379 28.6875 32.8125 29.6129 32.8125 30.75H34.1875C34.1875 30.3705 34.4962 30.0625 34.875 30.0625Z" fill="white"/>
<path d="M35.4924 33.8231L35.5274 33.7173L34.2225 33.2834L34.1875 33.3886C33.8912 34.2776 33.062 34.875 32.125 34.875C31.1879 34.875 30.3588 34.2776 30.0625 33.3893L30.0274 33.2834L28.7225 33.7173L28.7583 33.8238C29.2416 35.2751 30.5946 36.25 32.125 36.25C33.6554 36.25 35.0084 35.2751 35.4924 33.8231Z" fill="white"/>
<path d="M52.0625 39.0001C52.0625 38.2232 51.7937 37.5137 51.3571 36.9376H53.4375V40.3751L60.7711 34.8751L53.4375 29.3751V32.8126H51.3571C51.7937 32.2364 52.0625 31.5269 52.0625 30.7501V24.5626H55.5L50 17.229L44.5 24.5626H47.9375V30.0626H42.0553C41.9927 29.9553 41.9239 29.8536 41.8476 29.7559L42.179 28.4298C42.3509 27.7436 42.4375 27.0389 42.4375 26.3329C42.4375 21.5664 38.5593 17.6876 33.7922 17.6876H23.6124C21.862 17.6876 20.4375 19.1114 20.4375 20.8624V21.3877C20.4375 22.3722 20.8974 23.2426 21.6035 23.8256C20.8514 24.7014 20.4375 25.8021 20.4375 26.9688C20.4375 28.2606 20.9407 29.4754 21.8544 30.3891L21.983 30.5177C21.8792 30.8064 21.8125 31.1131 21.8125 31.4376C21.8125 32.9542 23.0459 34.1876 24.5625 34.1876H25.0877C25.7491 35.8733 26.9928 37.2662 28.5768 38.1118L28.1052 40.4699L23.2377 41.3548C21.6331 41.6469 20.1879 42.5091 19.1684 43.7823C18.2134 44.9758 17.6875 46.4759 17.6875 48.0049V60.3126H46.5625V56.1876L50 60.7711L55.5 53.4376H52.0625V39.0001ZM54.8125 34.1876V32.1251L58.4789 34.8751L54.8125 37.6251V35.5626H38.4555C38.7367 35.1329 38.9725 34.6723 39.1623 34.1876H54.8125ZM39.6875 31.4376V30.0626C40.4458 30.0626 41.0625 30.6793 41.0625 31.4376C41.0625 32.1959 40.4458 32.8126 39.6875 32.8126H39.5562C39.6387 32.3657 39.6875 31.9078 39.6875 31.4376ZM47.9375 31.4376C48.6958 31.4376 49.3125 30.8209 49.3125 30.0626V23.1876H47.25L50 19.5211L52.75 23.1876H50.6875V30.7501C50.6875 31.8872 49.7621 32.8126 48.625 32.8126H42.0553C42.2917 32.4063 42.4375 31.9408 42.4375 31.4376H47.9375ZM24.5625 32.8126C23.8042 32.8126 23.1875 32.1959 23.1875 31.4376C23.1875 30.6793 23.8042 30.0626 24.5625 30.0626V31.4376C24.5625 31.9078 24.6113 32.3657 24.6938 32.8126H24.5625ZM24.5625 28.5714V28.6876C23.8791 28.6876 23.2618 28.9468 22.7805 29.3606C22.159 28.713 21.8125 27.8688 21.8125 26.9688C21.8125 26.0441 22.1728 25.1751 22.8266 24.5206L22.8788 24.4684C23.1153 24.5248 23.3587 24.5626 23.6124 24.5626H23.7127C24.9227 24.5626 26.0111 23.8895 26.5521 22.8074L25.3222 22.1921C25.0156 22.806 24.3989 23.1876 23.7127 23.1876H23.6124C22.6196 23.1876 21.8125 22.3798 21.8125 21.3877V20.8624C21.8125 19.8704 22.6196 19.0626 23.6124 19.0626H33.7922C37.801 19.0626 41.0625 22.3241 41.0625 26.3329C41.0625 26.9262 40.9896 27.5195 40.8452 28.0963L40.6514 28.8711C40.3503 28.7577 40.0278 28.6876 39.6875 28.6876C39.6875 27.1709 38.4541 25.9376 36.9375 25.9376H30.3973C29.4548 25.9376 28.6875 25.1703 28.6875 24.2278C28.6875 23.4908 29.1578 22.839 29.8563 22.6066L30.2797 22.4657L29.8453 21.1608L29.4218 21.3024C28.1602 21.7218 27.3125 22.8974 27.3125 24.2278C27.3125 24.3453 27.3194 24.4608 27.3317 24.5749L26.5652 25.0349C25.3298 25.7753 24.5625 27.1304 24.5625 28.5714ZM25.9375 31.4376V28.5714C25.9375 27.6109 26.449 26.7076 27.2726 26.2133L27.8027 25.8949C28.3527 26.7474 29.3104 27.3126 30.3973 27.3126H36.9375C37.6958 27.3126 38.3125 27.9293 38.3125 28.6876V31.4376C38.3125 34.8496 35.5364 37.6251 32.125 37.6251C28.7136 37.6251 25.9375 34.8496 25.9375 31.4376ZM45.0816 43.7823C44.0621 42.5084 42.6169 41.6469 41.0123 41.3554L36.1448 40.4699L35.9888 39.6876H47.9375V53.4376H46.5625V48.0049C46.5625 46.4759 46.0366 44.9758 45.0816 43.7823ZM38.1839 51.2802L33.9297 56.3856L36.1001 49.8743L37.3081 49.5291L38.1839 51.2802ZM24.5625 42.5111L25.6309 42.3166L27.6233 48.293L24.5625 47.4192V42.5111ZM35.6945 41.7851L37.2524 42.0684L36.2094 45.1972L33.3776 43.1746L35.6945 41.7851ZM31.3323 47.9376H32.9177L33.7104 52.6944L32.125 57.4505L30.5396 52.6937L31.3323 47.9376ZM34.6399 49.9066L34.2013 47.2755L34.5787 45.7224L35.7543 46.5626L34.6399 49.9066ZM33.3728 44.861L32.9596 46.5626H31.2904L30.8772 44.861L32.125 43.97L33.3728 44.861ZM29.6713 45.7224L30.0487 47.2755L29.6101 49.9066L28.495 46.5619L29.6713 45.7224ZM26.9419 49.5291L28.1499 49.8743L30.3203 56.3856L26.0661 51.2802L26.9419 49.5291ZM36.6268 48.293L38.6184 42.3173L39.6875 42.5118V47.4192L36.6268 48.293ZM32.125 39.0001C32.9101 39.0001 33.6678 38.8791 34.38 38.6563L34.7932 40.7223L32.125 42.3234L29.4568 40.7223L29.87 38.6563C30.5822 38.8791 31.3399 39.0001 32.125 39.0001ZM28.5555 41.7851L30.8724 43.1753L28.0406 45.1979L26.9976 42.0684L28.5555 41.7851ZM19.0625 48.0049C19.0625 46.7874 19.4812 45.5925 20.2422 44.6417C20.9909 43.706 22.0291 43.0543 23.1875 42.7751V48.4559L25.5965 49.1448L24.4339 51.4699L30.6572 58.9376H23.1875V50.0001H21.8125V58.9376H19.0625V48.0049ZM45.1875 58.9376H42.4375V50.0001H41.0625V58.9376H33.5928L39.8161 51.4699L38.6535 49.1448L41.0625 48.4559V42.7758C42.2209 43.0543 43.2591 43.706 44.0077 44.6417C44.7688 45.5925 45.1875 46.7867 45.1875 48.0049V58.9376ZM52.75 54.8126L50 58.479L47.25 54.8126H49.3125V39.6876C49.3125 38.9293 48.6958 38.3126 47.9375 38.3126H35.7137L35.6739 38.1118C36.2686 37.7942 36.8131 37.3961 37.2998 36.9376H48.625C49.7621 36.9376 50.6875 37.8629 50.6875 39.0001V54.8126H52.75Z" fill="white"/>
</svg>
