<svg width="23" height="23" viewBox="0 0 23 23" fill="none" xmlns="http://www.w3.org/2000/svg">
<g clip-path="url(#clip0)">
<path d="M22.6448 2.28476C22.3639 1.94118 21.9431 1.75201 21.4599 1.75201C21.1972 1.75201 20.9189 1.80729 20.6328 1.91661L1.16376 9.34855C0.13056 9.74284 -0.00859274 10.3345 0.000356533 10.6522C0.0093058 10.9698 0.181799 11.5527 1.23571 11.888C1.24203 11.89 1.24834 11.8919 1.25466 11.8937L5.29307 13.0493L7.47704 19.2945C7.77482 20.1459 8.44321 20.6748 9.22162 20.6748C9.71243 20.6748 10.1952 20.4692 10.6177 20.0803L13.1156 17.7803L16.7387 20.6976C16.739 20.698 16.7395 20.6982 16.7399 20.6985L16.7743 20.7262C16.7774 20.7287 16.7808 20.7313 16.7839 20.7338C17.1867 21.0461 17.6262 21.2111 18.0556 21.2113H18.0558C18.8947 21.2113 19.5628 20.5902 19.7574 19.6293L22.9474 3.87791C23.0755 3.24567 22.9681 2.67993 22.6448 2.28476ZM6.64406 12.8298L14.4354 8.84949L9.58398 14.0045C9.50449 14.0889 9.44816 14.1922 9.42044 14.3047L8.48497 18.0939L6.64406 12.8298ZM9.70471 19.0889C9.67242 19.1185 9.63996 19.145 9.6075 19.1694L10.4754 15.6543L12.0542 16.9256L9.70471 19.0889ZM21.6266 3.61031L18.4366 19.3619C18.4059 19.5126 18.3078 19.8634 18.0556 19.8634C17.931 19.8634 17.7745 19.7955 17.6143 19.6722L13.5089 16.3665C13.5083 16.366 13.5076 16.3655 13.5069 16.3651L11.0641 14.398L18.0798 6.9433C18.3044 6.70465 18.3248 6.33913 18.1281 6.07697C17.9312 5.81481 17.5745 5.73234 17.2826 5.88149L5.74369 11.7764L1.65036 10.6053L21.1135 3.17565C21.2779 3.11283 21.3926 3.09967 21.4599 3.09967C21.5011 3.09967 21.5744 3.10458 21.6016 3.1381C21.6374 3.18179 21.6831 3.33077 21.6266 3.61031Z" fill="white"/>
</g>
<defs>
<clipPath id="clip0">
<rect width="23" height="23" fill="white"/>
</clipPath>
</defs>
</svg>
