<svg width="44" height="44" viewBox="0 0 44 44" fill="none" xmlns="http://www.w3.org/2000/svg">
<path d="M12.375 13.0625C12.7538 13.0625 13.0625 13.3705 13.0625 13.75H14.4375C14.4375 12.6129 13.5121 11.6875 12.375 11.6875C11.2379 11.6875 10.3125 12.6129 10.3125 13.75H11.6875C11.6875 13.3705 11.9962 13.0625 12.375 13.0625Z" fill="#285953"/>
<path d="M17.875 13.0625C18.2538 13.0625 18.5625 13.3705 18.5625 13.75H19.9375C19.9375 12.6129 19.0121 11.6875 17.875 11.6875C16.7379 11.6875 15.8125 12.6129 15.8125 13.75H17.1875C17.1875 13.3705 17.4962 13.0625 17.875 13.0625Z" fill="#285953"/>
<path d="M18.4924 16.8231L18.5274 16.7173L17.2225 16.2834L17.1875 16.3886C16.8912 17.2776 16.062 17.875 15.125 17.875C14.1879 17.875 13.3588 17.2776 13.0625 16.3893L13.0274 16.2834L11.7225 16.7173L11.7583 16.8238C12.2416 18.2751 13.5946 19.25 15.125 19.25C16.6554 19.25 18.0084 18.2751 18.4924 16.8231Z" fill="#285953"/>
<path d="M35.0625 22.0001C35.0625 21.2232 34.7937 20.5137 34.3571 19.9376H36.4375V23.3751L43.7711 17.8751L36.4375 12.3751V15.8126H34.3571C34.7937 15.2364 35.0625 14.5269 35.0625 13.7501V7.56257H38.5L33 0.229004L27.5 7.56257H30.9375V13.0626H25.0553C24.9927 12.9553 24.9239 12.8536 24.8476 12.7559L25.179 11.4298C25.3509 10.7436 25.4375 10.0389 25.4375 9.33288C25.4375 4.56644 21.5593 0.687566 16.7922 0.687566H6.61238C4.862 0.687566 3.4375 2.11138 3.4375 3.86244V4.38769C3.4375 5.37219 3.89744 6.24257 4.6035 6.82557C3.85138 7.70144 3.4375 8.80213 3.4375 9.96882C3.4375 11.2606 3.94075 12.4754 4.85444 13.3891L4.983 13.5177C4.87919 13.8064 4.8125 14.1131 4.8125 14.4376C4.8125 15.9542 6.04588 17.1876 7.5625 17.1876H8.08775C8.74912 18.8733 9.99281 20.2662 11.5768 21.1118L11.1052 23.4699L6.23769 24.3548C4.63306 24.6469 3.18794 25.5091 2.16838 26.7823C1.21344 27.9758 0.6875 29.4759 0.6875 31.0049V43.3126H29.5625V39.1876L33 43.7711L38.5 36.4376H35.0625V22.0001ZM37.8125 17.1876V15.1251L41.4789 17.8751L37.8125 20.6251V18.5626H21.4555C21.7367 18.1329 21.9725 17.6723 22.1623 17.1876H37.8125ZM22.6875 14.4376V13.0626C23.4458 13.0626 24.0625 13.6793 24.0625 14.4376C24.0625 15.1959 23.4458 15.8126 22.6875 15.8126H22.5562C22.6387 15.3657 22.6875 14.9078 22.6875 14.4376ZM30.9375 14.4376C31.6958 14.4376 32.3125 13.8209 32.3125 13.0626V6.18757H30.25L33 2.52113L35.75 6.18757H33.6875V13.7501C33.6875 14.8872 32.7621 15.8126 31.625 15.8126H25.0553C25.2917 15.4063 25.4375 14.9408 25.4375 14.4376H30.9375ZM7.5625 15.8126C6.80419 15.8126 6.1875 15.1959 6.1875 14.4376C6.1875 13.6793 6.80419 13.0626 7.5625 13.0626V14.4376C7.5625 14.9078 7.61131 15.3657 7.69381 15.8126H7.5625ZM7.5625 11.5714V11.6876C6.87913 11.6876 6.26175 11.9468 5.7805 12.3606C5.159 11.713 4.8125 10.8688 4.8125 9.96882C4.8125 9.04413 5.17275 8.17513 5.82656 7.52063L5.87881 7.46838C6.11531 7.52475 6.35869 7.56257 6.61238 7.56257H6.71275C7.92275 7.56257 9.01106 6.8895 9.55212 5.80738L8.32219 5.19207C8.01556 5.806 7.39887 6.18757 6.71275 6.18757H6.61238C5.61963 6.18757 4.8125 5.37975 4.8125 4.38769V3.86244C4.8125 2.87038 5.61963 2.06257 6.61238 2.06257H16.7922C20.801 2.06257 24.0625 5.32407 24.0625 9.33288C24.0625 9.92619 23.9896 10.5195 23.8452 11.0963L23.6514 11.8711C23.3503 11.7577 23.0278 11.6876 22.6875 11.6876C22.6875 10.1709 21.4541 8.93757 19.9375 8.93757H13.3973C12.4548 8.93757 11.6875 8.17032 11.6875 7.22775C11.6875 6.49075 12.1578 5.839 12.8563 5.60663L13.2797 5.46569L12.8453 4.16082L12.4218 4.30244C11.1602 4.72182 10.3125 5.89744 10.3125 7.22775C10.3125 7.34532 10.3194 7.46082 10.3317 7.57494L9.56519 8.03488C8.32975 8.77532 7.5625 10.1304 7.5625 11.5714ZM8.9375 14.4376V11.5714C8.9375 10.6109 9.449 9.70757 10.2726 9.21325L10.8027 8.89494C11.3527 9.74744 12.3104 10.3126 13.3973 10.3126H19.9375C20.6958 10.3126 21.3125 10.9293 21.3125 11.6876V14.4376C21.3125 17.8496 18.5364 20.6251 15.125 20.6251C11.7136 20.6251 8.9375 17.8496 8.9375 14.4376ZM28.0816 26.7823C27.0621 25.5084 25.6169 24.6469 24.0123 24.3554L19.1448 23.4699L18.9888 22.6876H30.9375V36.4376H29.5625V31.0049C29.5625 29.4759 29.0366 27.9758 28.0816 26.7823ZM21.1839 34.2802L16.9297 39.3856L19.1001 32.8743L20.3081 32.5291L21.1839 34.2802ZM7.5625 25.5111L8.63088 25.3166L10.6233 31.293L7.5625 30.4192V25.5111ZM18.6945 24.7851L20.2524 25.0684L19.2094 28.1972L16.3776 26.1746L18.6945 24.7851ZM14.3323 30.9376H15.9177L16.7104 35.6944L15.125 40.4505L13.5396 35.6937L14.3323 30.9376ZM17.6399 32.9066L17.2013 30.2755L17.5787 28.7224L18.7543 29.5626L17.6399 32.9066ZM16.3728 27.861L15.9596 29.5626H14.2904L13.8772 27.861L15.125 26.97L16.3728 27.861ZM12.6713 28.7224L13.0487 30.2755L12.6101 32.9066L11.495 29.5619L12.6713 28.7224ZM9.94194 32.5291L11.1499 32.8743L13.3203 39.3856L9.06606 34.2802L9.94194 32.5291ZM19.6268 31.293L21.6184 25.3173L22.6875 25.5118V30.4192L19.6268 31.293ZM15.125 22.0001C15.9101 22.0001 16.6678 21.8791 17.38 21.6563L17.7932 23.7223L15.125 25.3234L12.4568 23.7223L12.87 21.6563C13.5822 21.8791 14.3399 22.0001 15.125 22.0001ZM11.5555 24.7851L13.8724 26.1753L11.0406 28.1979L9.99763 25.0684L11.5555 24.7851ZM2.0625 31.0049C2.0625 29.7874 2.48119 28.5925 3.24225 27.6417C3.99094 26.706 5.02906 26.0543 6.1875 25.7751V31.4559L8.5965 32.1448L7.43394 34.4699L13.6572 41.9376H6.1875V33.0001H4.8125V41.9376H2.0625V31.0049ZM28.1875 41.9376H25.4375V33.0001H24.0625V41.9376H16.5928L22.8161 34.4699L21.6535 32.1448L24.0625 31.4559V25.7758C25.2209 26.0543 26.2591 26.706 27.0077 27.6417C27.7688 28.5925 28.1875 29.7867 28.1875 31.0049V41.9376ZM35.75 37.8126L33 41.479L30.25 37.8126H32.3125V22.6876C32.3125 21.9293 31.6958 21.3126 30.9375 21.3126H18.7137L18.6739 21.1118C19.2686 20.7942 19.8131 20.3961 20.2998 19.9376H31.625C32.7621 19.9376 33.6875 20.8629 33.6875 22.0001V37.8126H35.75Z" fill="#285953"/>
</svg>
