<svg width="30" height="30" viewBox="0 0 30 30" fill="none" xmlns="http://www.w3.org/2000/svg">
<path d="M21.2109 0H8.78906C3.94277 0 0 3.94277 0 8.78906V21.2109C0 26.0572 3.94277 30 8.78906 30H21.2109C26.0572 30 30 26.0572 30 21.2109V8.78906C30 3.94277 26.0572 0 21.2109 0ZM28.8281 21.2109C28.8281 25.4111 25.4111 28.8281 21.2109 28.8281H8.78906C4.58895 28.8281 1.17188 25.4111 1.17188 21.2109V8.78906C1.17188 4.58895 4.58895 1.17188 8.78906 1.17188H21.2109C25.4111 1.17188 28.8281 4.58895 28.8281 8.78906V21.2109Z" fill="white" fill-opacity="0.6"/>
<path d="M21.2109 2.57812H8.78906C5.36432 2.57812 2.57812 5.36432 2.57812 8.78906V21.2109C2.57812 24.6357 5.36432 27.4219 8.78906 27.4219H12.3633C12.6869 27.4219 12.9492 27.1596 12.9492 26.8359C12.9492 26.5123 12.6869 26.25 12.3633 26.25H8.78906C6.01055 26.25 3.75 23.9895 3.75 21.2109V8.78906C3.75 6.01055 6.01055 3.75 8.78906 3.75H21.2109C23.9895 3.75 26.25 6.01055 26.25 8.78906V21.2109C26.25 23.9895 23.9895 26.25 21.2109 26.25H17.6758C17.3522 26.25 17.0899 26.5123 17.0899 26.8359C17.0899 27.1596 17.3522 27.4219 17.6758 27.4219H21.2109C24.6357 27.4219 27.4219 24.6357 27.4219 21.2109V8.78906C27.4219 5.36432 24.6357 2.57812 21.2109 2.57812Z" fill="white" fill-opacity="0.6"/>
<path d="M15.4143 26.4217C15.3053 26.3127 15.1541 26.25 15 26.25C14.8459 26.25 14.6947 26.3127 14.5857 26.4217C14.4768 26.5307 14.4141 26.6818 14.4141 26.8359C14.4141 26.99 14.4768 27.1412 14.5857 27.2502C14.6947 27.3592 14.8459 27.4219 15 27.4219C15.1541 27.4219 15.3053 27.3592 15.4143 27.2502C15.5232 27.1412 15.5859 26.99 15.5859 26.8359C15.5859 26.6818 15.5232 26.5307 15.4143 26.4217Z" fill="white" fill-opacity="0.6"/>
<path d="M10.3027 9.12367C10.0813 8.88754 9.71062 8.87547 9.47443 9.09666L9.44847 9.12109C9.2131 9.34316 9.20232 9.714 9.42445 9.94937C9.5397 10.0715 9.69503 10.1332 9.85072 10.1332C9.99498 10.1332 10.1395 10.0802 10.2527 9.9734L10.2756 9.95189C10.5118 9.73064 10.5239 9.3598 10.3027 9.12367Z" fill="white" fill-opacity="0.6"/>
<path d="M15 6.91406C13.713 6.91406 12.4322 7.22408 11.2959 7.81061C11.0084 7.95902 10.8956 8.31246 11.044 8.60004C11.1925 8.88756 11.5459 9.00029 11.8334 8.85193C12.8181 8.34363 13.8835 8.08594 15 8.08594C18.8124 8.08594 21.9141 11.1876 21.9141 15C21.9141 18.8124 18.8124 21.9141 15 21.9141C11.1876 21.9141 8.08594 18.8124 8.08594 15C8.08594 13.8036 8.39619 12.6248 8.98318 11.5911C9.14297 11.3098 9.04441 10.9521 8.76299 10.7923C8.48156 10.6325 8.12397 10.731 7.96412 11.0125C7.27717 12.2222 6.91406 13.6011 6.91406 15C6.91406 19.4586 10.5414 23.0859 15 23.0859C19.4586 23.0859 23.0859 19.4586 23.0859 15C23.0859 10.5414 19.4586 6.91406 15 6.91406Z" fill="white" fill-opacity="0.6"/>
<path d="M15 9.72656C12.0922 9.72656 9.72656 12.0922 9.72656 15C9.72656 17.9078 12.0922 20.2734 15 20.2734C17.9078 20.2734 20.2734 17.9078 20.2734 15C20.2734 12.0922 17.9078 9.72656 15 9.72656ZM15 19.1016C12.7384 19.1016 10.8984 17.2616 10.8984 15C10.8984 12.7384 12.7384 10.8984 15 10.8984C17.2616 10.8984 19.1016 12.7384 19.1016 15C19.1016 17.2616 17.2616 19.1016 15 19.1016Z" fill="white" fill-opacity="0.6"/>
<path d="M22.6904 5.08301C21.4627 5.08301 20.4639 6.08186 20.4639 7.30957C20.4639 8.53729 21.4627 9.53613 22.6904 9.53613C23.9181 9.53613 24.917 8.53729 24.917 7.30957C24.917 6.08186 23.9181 5.08301 22.6904 5.08301ZM22.6904 8.36426C22.1089 8.36426 21.6357 7.89111 21.6357 7.30957C21.6357 6.72803 22.1089 6.25488 22.6904 6.25488C23.272 6.25488 23.7451 6.72803 23.7451 7.30957C23.7451 7.89111 23.272 8.36426 22.6904 8.36426Z" fill="white" fill-opacity="0.6"/>
</svg>
