<svg width="44" height="45" viewBox="0 0 44 45" fill="none" xmlns="http://www.w3.org/2000/svg">
<g clip-path="url(#clip0)">
<path d="M40.1742 30.5638C39.7435 30.5638 39.3162 30.6378 38.9043 30.7839L26.8017 35.0756C26.8544 34.8192 26.8822 34.5538 26.8822 34.2819C26.8822 32.1315 25.1481 30.3821 23.0166 30.3821H11.7049C8.20446 30.3821 4.91352 31.7573 2.43836 34.2544L0.0101929 36.704V44.6814H28.0099L41.8432 37.8828C43.1473 37.2419 43.9898 35.8823 43.9898 34.4189C43.9899 32.2932 42.2782 30.5638 40.1742 30.5638ZM40.7148 35.5456L27.4157 42.0817H2.58714V37.7809L4.26052 36.0927C6.24898 34.0866 8.89276 32.9819 11.7049 32.9819H23.0165C23.727 32.9819 24.3051 33.5651 24.3051 34.282C24.3051 34.9988 23.727 35.5819 23.0165 35.5819H14.8276V38.1817H25.8135L39.7587 33.2366C39.8954 33.1882 40.0352 33.1636 40.1741 33.1636C40.7699 33.1636 41.4129 33.6436 41.4129 34.4189C41.413 34.8949 41.139 35.3371 40.7148 35.5456Z" fill="#47915E"/>
<path d="M15.7127 18.5569C16.4081 19.1116 16.807 19.9328 16.807 20.81V24.1649L18.4025 27.5081H25.5977L27.1933 24.1649V20.8183C27.1933 19.9366 27.5938 19.1109 28.2922 18.5532C30.7403 16.5981 32.1443 13.6722 32.1443 10.526C32.1442 4.88298 27.5935 0.291992 22 0.291992C21.8694 0.291992 21.7368 0.294592 21.6059 0.299531C18.978 0.400315 16.5211 1.51803 14.6876 3.44688C12.8552 5.37459 11.8495 7.89757 11.8559 10.551C11.8634 13.6897 13.2691 16.6078 15.7127 18.5569ZM23.9783 24.9083H20.0217L19.3838 23.5717V22.1099H24.6161V23.5717L23.9783 24.9083ZM16.5475 5.24634C17.9161 3.80668 19.7473 2.97242 21.7038 2.89746C21.8022 2.89374 21.9019 2.89174 22 2.89174C26.1726 2.89174 29.5672 6.31648 29.5672 10.5259C29.5672 12.8729 28.5194 15.0557 26.6926 16.5147C25.7236 17.2886 25.0597 18.3404 24.7745 19.51H19.2273C18.9432 18.3412 18.2798 17.2902 17.311 16.5175C15.4876 15.0629 14.4386 12.886 14.4329 10.5448C14.4281 8.5677 15.1791 6.68591 16.5475 5.24634Z" fill="#47915E"/>
<path d="M5.44818 9.24817H9.27873V11.8479H5.44818V9.24817Z" fill="#47915E"/>
<path d="M7.02142 3.3252L8.3099 1.07381L11.6271 3.00603L10.3387 5.25742L7.02142 3.3252Z" fill="#47915E"/>
<path d="M7.02112 17.7706L10.3384 15.8384L11.6268 18.0898L8.30959 20.022L7.02112 17.7706Z" fill="#47915E"/>
<path d="M34.7209 9.24817H38.5515V11.8479H34.7209V9.24817Z" fill="#47915E"/>
<path d="M32.3717 3.00586L35.689 1.07364L36.9774 3.32502L33.6602 5.25724L32.3717 3.00586Z" fill="#47915E"/>
<path d="M32.3722 18.0912L33.6607 15.8398L36.9779 17.772L35.6894 20.0234L32.3722 18.0912Z" fill="#47915E"/>
</g>
<defs>
<clipPath id="clip0">
<rect width="44" height="44.3894" fill="white" transform="translate(0 0.291992)"/>
</clipPath>
</defs>
</svg>
