<svg width="79" height="80" viewBox="0 0 79 80" fill="none" xmlns="http://www.w3.org/2000/svg">
<path d="M79 39.8582C79 61.8713 61.3152 79.7165 39.5 79.7165C17.6848 79.7165 0 61.8713 0 39.8582C0 17.8451 17.6848 0 39.5 0C61.3152 0 79 17.8451 79 39.8582ZM2.65413 39.8582C2.65413 60.3922 19.1506 77.0383 39.5 77.0383C59.8494 77.0383 76.3459 60.3922 76.3459 39.8582C76.3459 19.3243 59.8494 2.6782 39.5 2.6782C19.1506 2.6782 2.65413 19.3243 2.65413 39.8582Z" fill="#47915E"/>
<g clip-path="url(#clip0)">
<path d="M50.9393 60.6855C50.0729 55.9891 50.6633 51.1401 52.6315 46.7888L50.9558 46.0445C48.961 50.4663 48.2792 55.3683 48.9914 60.1667H31.1861L33.5318 53.123C33.5868 52.9578 33.5936 52.7805 33.5514 52.6116C33.4288 52.1204 32.9312 51.8216 32.4401 51.9442C32.4016 51.9515 28.9925 52.7839 26.5349 51.9634C24.7382 51.3639 24.8941 46.8365 25.2516 44.7374C25.2603 44.6864 25.2646 44.6349 25.2646 44.5832C25.2646 44.077 24.854 43.6666 24.3478 43.6668H21.023C20.3666 43.6668 19.8339 43.136 19.8313 42.4797C19.8309 42.2419 19.9025 42.0097 20.0366 41.8133L24.6484 35.0171C24.7869 34.8118 24.8371 34.5595 24.7877 34.3168C24.2474 31.009 25.0837 27.6241 27.1022 24.9485C29.8687 21.554 34.8013 19.8335 41.7643 19.8335V18C34.223 18 28.8146 19.9479 25.6806 23.7897C23.3815 26.7736 22.3876 30.5609 22.9251 34.2892L18.5196 40.7828C18.183 41.2815 18.0028 41.8693 18.002 42.471C17.9997 44.1416 19.3523 45.4978 21.0229 45.5H23.299C23.056 47.766 22.9012 52.6839 25.9582 53.7051C27.6987 54.1891 29.5228 54.2932 31.307 54.0103L29.0447 60.7936C29.0136 60.8871 28.9977 60.985 28.9977 61.0835C28.9978 61.5897 29.4083 62.0001 29.9145 61.9999H50.0813C50.1383 61.9999 50.1952 61.9946 50.2511 61.9841C50.7486 61.8904 51.0761 61.4112 50.9824 60.9137L50.9393 60.6855Z" fill="#285953"/>
<path d="M40.9146 48.25H39.0813V50.0833H40.9146V48.25Z" fill="#285953"/>
<path d="M42.7479 51.9167H40.9146V53.7501H42.7479V51.9167Z" fill="#285953"/>
<path d="M44.5813 55.5833H42.748V57.4165H44.5813V55.5833Z" fill="#285953"/>
<path d="M46.4146 25.3333C41.8583 25.3333 38.1646 29.0269 38.1646 33.5833C38.1646 38.1396 41.8583 41.8333 46.4146 41.8333C50.9687 41.8277 54.659 38.1373 54.6646 33.5833C54.6646 29.0269 50.971 25.3333 46.4146 25.3333ZM46.4146 39.9999C42.8708 39.9999 39.9979 37.1271 39.9979 33.5833C39.9979 30.0394 42.8707 27.1666 46.4146 27.1666C49.9568 27.1706 52.8273 30.0411 52.8313 33.5833C52.8313 37.1271 49.9585 39.9999 46.4146 39.9999Z" fill="#285953"/>
<path d="M42.748 33.5833H40.9147C40.9177 36.6196 43.3784 39.0802 46.4147 39.0833V37.2499C44.3896 37.2499 42.748 35.6084 42.748 33.5833Z" fill="#285953"/>
<path d="M46.4146 28.0833V29.9166C48.4397 29.9166 50.0813 31.5581 50.0813 33.5832H51.9146C51.9116 30.547 49.451 28.0863 46.4146 28.0833Z" fill="#285953"/>
<path d="M61.2326 30.847L57.8556 30.2833C57.6082 29.4302 57.2657 28.6077 56.8344 27.8312L58.8272 25.0418C59.0874 24.6771 59.0459 24.1778 58.7291 23.8611L56.1359 21.2678C55.8192 20.9511 55.3199 20.9095 54.9552 21.1698L52.1657 23.1626C51.3896 22.7317 50.5673 22.3894 49.7145 22.1423L49.1517 18.7653C49.0778 18.3237 48.6957 18 48.2479 17.9999H44.5813C44.1335 18 43.7513 18.3236 43.6775 18.7653L43.1147 22.1423C42.2617 22.3893 41.4391 22.7316 40.6627 23.1626L37.8732 21.1698C37.5086 20.9095 37.0093 20.9511 36.6925 21.2678L34.0993 23.8611C33.7825 24.1778 33.741 24.677 34.0012 25.0418L35.994 27.8312C35.5631 28.6074 35.2208 29.4297 34.9738 30.2824L31.5968 30.8462C31.1551 30.9201 30.8315 31.3022 30.8313 31.75V35.4167C30.8319 35.8641 31.1554 36.2458 31.5968 36.3196L34.9738 36.8834C35.2211 37.7365 35.5636 38.559 35.995 39.3354L34.0022 42.1249C33.7419 42.4895 33.7835 42.9888 34.1002 43.3055L36.6935 45.8988C37.0101 46.2156 37.5094 46.2571 37.8742 45.9969L40.6636 44.004C41.4398 44.4349 42.262 44.7772 43.1148 45.0243L43.6776 48.4013C43.7515 48.8429 44.1337 49.1666 44.5814 49.1667H48.2481C48.6956 49.1661 49.0772 48.8427 49.1511 48.4013L49.7148 45.0243C50.5678 44.7773 51.3904 44.435 52.1669 44.004L54.9563 45.9969C55.3209 46.2571 55.8202 46.2156 56.137 45.8988L58.7302 43.3055C59.047 42.9889 59.0885 42.4896 58.8283 42.1249L56.8355 39.3354C57.2664 38.5592 57.6087 37.737 57.8557 36.8842L61.2327 36.3205C61.6744 36.2466 61.998 35.8644 61.9982 35.4167V31.75C61.9974 31.3025 61.6739 30.9208 61.2326 30.847ZM60.1646 34.6402L56.9646 35.1765C56.5993 35.2376 56.3068 35.5125 56.223 35.8732C55.9716 36.9438 55.5457 37.9657 54.9626 38.8982C54.766 39.2127 54.7782 39.6147 54.9938 39.9166L56.8812 42.5594L55.387 44.0535L52.7443 42.1661C52.4424 41.9507 52.0404 41.9384 51.7258 42.1349C50.7934 42.7181 49.7714 43.1439 48.7008 43.3954C48.3401 43.4791 48.0653 43.7718 48.0041 44.1369L47.4716 47.3334H45.3578L44.8215 44.1333C44.7604 43.7681 44.4856 43.4755 44.1248 43.3917C43.0542 43.1403 42.0323 42.7145 41.0998 42.1313C40.7853 41.9347 40.3833 41.947 40.0814 42.1625L37.4386 44.0499L35.9444 42.5557L37.8319 39.913C38.0473 39.6111 38.0597 39.2091 37.8631 38.8945C37.2799 37.9621 36.8541 36.9402 36.6026 35.8695C36.5188 35.5089 36.2262 35.234 35.8611 35.1729L32.6646 34.6403V32.5265L35.8611 31.9902C36.2263 31.9291 36.5188 31.6542 36.6026 31.2935C36.8541 30.2229 37.2799 29.201 37.8631 28.2685C38.0597 27.954 38.0474 27.552 37.8319 27.2501L35.9444 24.6074L37.4386 23.1132L40.0851 25.0006C40.387 25.216 40.789 25.2283 41.1035 25.0318C42.0359 24.4486 43.0579 24.0228 44.1285 23.7714C44.4892 23.6876 44.764 23.3949 44.8252 23.0298L45.3578 19.8334H47.4716L48.0078 23.0298C48.0689 23.395 48.3438 23.6876 48.7045 23.7714C49.7751 24.0228 50.7971 24.4486 51.7295 25.0318C52.0441 25.2284 52.4461 25.2161 52.748 25.0006L55.3907 23.1169L56.8849 24.611L54.9975 27.2538C54.782 27.5557 54.7697 27.9577 54.9663 28.2722C55.5494 29.2047 55.9753 30.2266 56.2267 31.2972C56.3105 31.6579 56.6031 31.9328 56.9683 31.9939L60.1647 32.5265V34.6402H60.1646Z" fill="#285953"/>
</g>
<defs>
<clipPath id="clip0">
<rect width="44" height="44" fill="white" transform="translate(18 18)"/>
</clipPath>
</defs>
</svg>
