<svg width="44" height="44" viewBox="0 0 44 44" fill="none" xmlns="http://www.w3.org/2000/svg">
<g clip-path="url(#clip0)">
<path d="M32.9393 42.6855C32.0729 37.9891 32.6633 33.1401 34.6315 28.7888L32.9558 28.0445C30.961 32.4663 30.2792 37.3683 30.9914 42.1667H13.1861L15.5318 35.123C15.5868 34.9578 15.5936 34.7805 15.5514 34.6116C15.4288 34.1204 14.9312 33.8216 14.4401 33.9442C14.4016 33.9515 10.9925 34.7839 8.53488 33.9634C6.73819 33.3639 6.89408 28.8365 7.25158 26.7374C7.26026 26.6864 7.26464 26.6349 7.26464 26.5832C7.26456 26.077 6.85403 25.6666 6.34777 25.6668H3.02303C2.36663 25.6668 1.83391 25.136 1.83133 24.4797C1.8309 24.2419 1.90249 24.0097 2.03663 23.8133L6.64838 17.0171C6.78692 16.8118 6.8371 16.5595 6.78769 16.3168C6.2474 13.009 7.08366 9.62406 9.10224 6.94848C11.8687 3.55403 16.8013 1.83348 23.7643 1.83348V0C16.223 0 10.8146 1.94795 7.68058 5.7897C5.38149 8.77362 4.38763 12.5609 4.92508 16.2892L0.51958 22.7828C0.182963 23.2815 0.00283815 23.8693 0.00197878 24.471C-0.000255597 26.1416 1.35231 27.4978 3.02294 27.5H5.29899C5.05605 29.766 4.90119 34.6839 7.95824 35.7051C9.69865 36.1891 11.5228 36.2932 13.307 36.0103L11.0447 42.7936C11.0136 42.8871 10.9977 42.985 10.9977 43.0835C10.9978 43.5897 11.4083 44.0001 11.9145 43.9999H32.0813C32.1383 43.9999 32.1952 43.9946 32.2511 43.9841C32.7486 43.8904 33.0761 43.4112 32.9824 42.9137L32.9393 42.6855Z" fill="#285953"/>
<path d="M22.9146 30.25H21.0813V32.0833H22.9146V30.25Z" fill="#285953"/>
<path d="M24.7479 33.9167H22.9146V35.7501H24.7479V33.9167Z" fill="#285953"/>
<path d="M26.5813 37.5833H24.748V39.4165H26.5813V37.5833Z" fill="#285953"/>
<path d="M28.4146 7.33325C23.8583 7.33325 20.1646 11.0269 20.1646 15.5833C20.1646 20.1396 23.8583 23.8333 28.4146 23.8333C32.9687 23.8277 36.659 20.1373 36.6646 15.5833C36.6646 11.0269 32.971 7.33325 28.4146 7.33325ZM28.4146 21.9999C24.8708 21.9999 21.9979 19.1271 21.9979 15.5833C21.9979 12.0394 24.8707 9.16656 28.4146 9.16656C31.9568 9.1706 34.8273 12.0411 34.8313 15.5833C34.8313 19.1271 31.9585 21.9999 28.4146 21.9999Z" fill="#285953"/>
<path d="M24.748 15.5833H22.9147C22.9177 18.6196 25.3784 21.0802 28.4147 21.0833V19.2499C26.3896 19.2499 24.748 17.6084 24.748 15.5833Z" fill="#285953"/>
<path d="M28.4146 10.0833V11.9166C30.4397 11.9166 32.0813 13.5581 32.0813 15.5832H33.9146C33.9116 12.547 31.451 10.0863 28.4146 10.0833Z" fill="#285953"/>
<path d="M43.2326 12.847L39.8556 12.2833C39.6082 11.4302 39.2657 10.6077 38.8344 9.83121L40.8272 7.04177C41.0874 6.67714 41.0459 6.17784 40.7291 5.86107L38.1359 3.26782C37.8192 2.95106 37.3199 2.90955 36.9552 3.16977L34.1657 5.16257C33.3896 4.73168 32.5673 4.38939 31.7145 4.14232L31.1517 0.765323C31.0778 0.32369 30.6957 4.98047e-05 30.2479 -0.00012207H26.5813C26.1335 4.98047e-05 25.7513 0.323605 25.6775 0.765323L25.1147 4.14232C24.2617 4.38931 23.4391 4.7316 22.6627 5.16257L19.8732 3.16977C19.5086 2.90955 19.0093 2.95106 18.6925 3.26782L16.0993 5.86107C15.7825 6.17775 15.741 6.67705 16.0012 7.04177L17.994 9.83121C17.5631 10.6074 17.2208 11.4297 16.9738 12.2824L13.5968 12.8462C13.1551 12.9201 12.8315 13.3022 12.8313 13.75V17.4167C12.8319 17.8641 13.1554 18.2458 13.5968 18.3196L16.9738 18.8834C17.2211 19.7365 17.5636 20.559 17.995 21.3354L16.0022 24.1249C15.7419 24.4895 15.7835 24.9888 16.1002 25.3055L18.6935 27.8988C19.0101 28.2156 19.5094 28.2571 19.8742 27.9969L22.6636 26.004C23.4398 26.4349 24.262 26.7772 25.1148 27.0243L25.6776 30.4013C25.7515 30.8429 26.1337 31.1666 26.5814 31.1667H30.2481C30.6956 31.1661 31.0772 30.8427 31.1511 30.4013L31.7148 27.0243C32.5678 26.7773 33.3904 26.435 34.1669 26.004L36.9563 27.9969C37.3209 28.2571 37.8202 28.2156 38.137 27.8988L40.7302 25.3055C41.047 24.9889 41.0885 24.4896 40.8283 24.1249L38.8355 21.3354C39.2664 20.5592 39.6087 19.737 39.8557 18.8842L43.2327 18.3205C43.6744 18.2466 43.998 17.8644 43.9982 17.4167V13.75C43.9974 13.3025 43.6739 12.9208 43.2326 12.847ZM42.1646 16.6402L38.9646 17.1765C38.5993 17.2376 38.3068 17.5125 38.223 17.8732C37.9716 18.9438 37.5457 19.9657 36.9626 20.8982C36.766 21.2127 36.7782 21.6147 36.9938 21.9166L38.8812 24.5594L37.387 26.0535L34.7443 24.1661C34.4424 23.9507 34.0404 23.9384 33.7258 24.1349C32.7934 24.7181 31.7714 25.1439 30.7008 25.3954C30.3401 25.4791 30.0653 25.7718 30.0041 26.1369L29.4716 29.3334H27.3578L26.8215 26.1333C26.7604 25.7681 26.4856 25.4755 26.1248 25.3917C25.0542 25.1403 24.0323 24.7145 23.0998 24.1313C22.7853 23.9347 22.3833 23.947 22.0814 24.1625L19.4386 26.0499L17.9444 24.5557L19.8319 21.913C20.0473 21.6111 20.0597 21.2091 19.8631 20.8945C19.2799 19.9621 18.8541 18.9402 18.6026 17.8695C18.5188 17.5089 18.2262 17.234 17.8611 17.1729L14.6646 16.6403V14.5265L17.8611 13.9902C18.2263 13.9291 18.5188 13.6542 18.6026 13.2935C18.8541 12.2229 19.2799 11.201 19.8631 10.2685C20.0597 9.95402 20.0474 9.552 19.8319 9.2501L17.9444 6.60735L19.4386 5.11316L22.0851 7.0006C22.387 7.21605 22.789 7.22834 23.1035 7.0318C24.0359 6.44863 25.0579 6.02281 26.1285 5.77135C26.4892 5.68756 26.764 5.39495 26.8252 5.0298L27.3578 1.83335H29.4716L30.0078 5.0298C30.0689 5.39503 30.3438 5.68756 30.7045 5.77135C31.7751 6.02281 32.7971 6.44863 33.7295 7.0318C34.0441 7.22842 34.4461 7.21614 34.748 7.0006L37.3907 5.11685L38.8849 6.61105L36.9975 9.2538C36.782 9.5557 36.7697 9.95771 36.9663 10.2722C37.5494 11.2047 37.9753 12.2266 38.2267 13.2972C38.3105 13.6579 38.6031 13.9328 38.9683 13.9939L42.1647 14.5265V16.6402H42.1646Z" fill="#285953"/>
</g>
<defs>
<clipPath id="clip0">
<rect width="44" height="44" fill="white"/>
</clipPath>
</defs>
</svg>
