<svg width="132" height="58" viewBox="0 0 132 58" fill="none" xmlns="http://www.w3.org/2000/svg">
<path d="M72.2477 45.3771H74.0907L72.9507 51.0771H69.4927L70.0057 48.3601H59.1377L61.7977 35.0601H65.5027L63.4317 45.3771H68.5427L70.5947 35.0601H74.3187L72.2477 45.3771ZM85.1037 41.5961L87.9347 48.3601H83.9447L81.9497 43.2681H80.0497L79.0237 48.3601H75.2617L77.9217 35.0601H81.6837L80.6577 40.2281H82.2537L86.4527 35.0601H90.6327L85.1037 41.5961ZM97.4039 35.0601C99.1265 35.0601 100.457 35.4338 101.394 36.1811C102.331 36.9284 102.8 37.9798 102.8 39.3351C102.8 40.4498 102.528 41.4251 101.983 42.2611C101.451 43.0971 100.685 43.7431 99.6839 44.1991C98.6959 44.6551 97.5432 44.8831 96.2259 44.8831H93.5659L92.8819 48.3601H89.1199L91.7799 35.0601H97.4039ZM96.3969 41.9191C97.2329 41.9191 97.8725 41.7228 98.3159 41.3301C98.7719 40.9374 98.9999 40.3801 98.9999 39.6581C98.9999 39.1134 98.8162 38.7081 98.4489 38.4421C98.0942 38.1634 97.5812 38.0241 96.9099 38.0241H94.9339L94.1549 41.9191H96.3969ZM115.386 45.3771H117.21L116.07 51.0391H112.631L113.163 48.3601H104.651L104.119 51.0391H100.661L101.801 45.3771H102.143C102.941 45.3644 103.631 44.7944 104.214 43.6671C104.797 42.5398 105.322 40.9944 105.791 39.0311L106.741 35.0601H117.457L115.386 45.3771ZM108.964 39.6391C108.609 41.0958 108.267 42.2864 107.938 43.2111C107.621 44.1358 107.241 44.8578 106.798 45.3771H111.681L113.163 38.0431H109.344L108.964 39.6391Z" fill="white"/>
<path d="M119.921 48.5311C119.326 48.5311 118.832 48.3474 118.439 47.9801C118.059 47.6001 117.869 47.1251 117.869 46.5551C117.869 45.8711 118.091 45.3201 118.534 44.9021C118.99 44.4714 119.541 44.2561 120.187 44.2561C120.795 44.2561 121.283 44.4398 121.65 44.8071C122.03 45.1618 122.22 45.6368 122.22 46.2321C122.22 46.9034 121.992 47.4544 121.536 47.8851C121.093 48.3158 120.555 48.5311 119.921 48.5311Z" fill="#E93F34"/>
<g clip-path="url(#clip0)">
<path d="M29.7714 19.1497C26.3397 19.1497 23.5478 21.9447 23.5478 25.3803C23.5478 28.2269 25.465 30.6318 28.0741 31.3736V50.7562C28.0741 51.6947 28.834 52.4555 29.7714 52.4555C30.7088 52.4555 31.4688 51.6947 31.4688 50.7562V31.3736C34.0779 30.6319 35.9951 28.2269 35.9951 25.3803C35.9951 21.9447 33.2031 19.1497 29.7714 19.1497ZM29.7714 28.2125C28.2116 28.2125 26.9425 26.942 26.9425 25.3803C26.9425 23.8187 28.2116 22.5482 29.7714 22.5482C31.3313 22.5482 32.6004 23.8187 32.6004 25.3803C32.6004 26.942 31.3313 28.2125 29.7714 28.2125Z" fill="white"/>
<path d="M21.919 16.2956C21.2563 15.6319 20.1816 15.6319 19.5186 16.2956C14.2562 21.5637 14.2554 30.0916 19.5186 35.3605C20.1816 36.0241 21.2561 36.0241 21.919 35.3605C22.5819 34.6969 22.5819 33.621 21.919 32.9573C17.9834 29.0174 17.9827 22.6393 21.919 18.6987C22.5819 18.0351 22.5819 16.9591 21.919 16.2956Z" fill="white"/>
<path d="M40.0241 16.2955C39.3614 15.632 38.2866 15.632 37.6237 16.2955C36.9609 16.959 36.9609 18.035 37.6237 18.6986C41.5504 22.6297 41.5504 29.0261 37.6237 32.9572C36.9609 33.6208 36.9609 34.6967 37.6237 35.3604C38.2867 36.024 39.3613 36.024 40.0241 35.3604C45.2745 30.1043 45.2745 21.5516 40.0241 16.2955Z" fill="white"/>
<path d="M16.7981 13.5719C17.461 12.9084 17.461 11.8324 16.7981 11.1688C16.1354 10.5053 15.0606 10.5053 14.3977 11.1688C6.32373 19.2519 6.32373 32.404 14.3977 40.4871C15.0604 41.1506 16.1351 41.151 16.7981 40.4871C17.461 39.8236 17.461 38.7476 16.7981 38.084C10.0478 31.326 10.0478 20.3299 16.7981 13.5719Z" fill="white"/>
<path d="M45.1452 11.1688C44.4824 10.5053 43.4077 10.5053 42.7448 11.1688C42.0819 11.8323 42.0819 12.9083 42.7448 13.5719C49.4951 20.3299 49.4951 31.326 42.7448 38.084C42.0819 38.7475 42.0819 39.8235 42.7448 40.4871C43.4078 41.1507 44.4823 41.1507 45.1452 40.4871C53.2192 32.404 53.2192 19.2519 45.1452 11.1688Z" fill="white"/>
<path d="M11.6772 8.44519C12.3401 7.78167 12.3401 6.70569 11.6772 6.04207C11.0144 5.37856 9.93965 5.37856 9.27677 6.04207C-2.03227 17.3638 -2.00771 34.3166 9.27677 45.6138C9.93942 46.2774 11.0142 46.2777 11.6772 45.6138C12.3401 44.9503 12.3401 43.8743 11.6772 43.2107C1.77875 33.3009 1.77875 18.355 11.6772 8.44519Z" fill="white"/>
<path d="M50.266 6.04207C49.6033 5.37856 48.5285 5.37856 47.8656 6.04207C47.2028 6.70558 47.2028 7.78156 47.8656 8.44519C57.7643 18.355 57.7643 33.3009 47.8656 43.2107C47.2028 43.8742 47.2028 44.9502 47.8656 45.6138C48.5286 46.2775 49.6032 46.2775 50.266 45.6138C61.5749 34.2922 61.5506 17.3393 50.266 6.04207Z" fill="white"/>
</g>
<defs>
<clipPath id="clip0">
<rect width="57.9344" height="58" fill="white" transform="translate(0.80426)"/>
</clipPath>
</defs>
</svg>
