<svg width="131" height="58" viewBox="0 0 131 58" fill="none" xmlns="http://www.w3.org/2000/svg">
<path d="M71.4736 45.377H73.3166L72.1766 51.077H68.7186L69.2316 48.36H58.3636L61.0236 35.06H64.7286L62.6576 45.377H67.7686L69.8206 35.06H73.5446L71.4736 45.377ZM84.3296 41.596L87.1606 48.36H83.1706L81.1756 43.268H79.2756L78.2496 48.36H74.4876L77.1476 35.06H80.9096L79.8836 40.228H81.4796L85.6786 35.06H89.8586L84.3296 41.596ZM96.6297 35.06C98.3524 35.06 99.6824 35.4337 100.62 36.181C101.557 36.9283 102.026 37.9797 102.026 39.335C102.026 40.4497 101.753 41.425 101.209 42.261C100.677 43.097 99.9104 43.743 98.9097 44.199C97.9217 44.655 96.7691 44.883 95.4517 44.883H92.7917L92.1077 48.36H88.3457L91.0057 35.06H96.6297ZM95.6227 41.919C96.4587 41.919 97.0984 41.7227 97.5417 41.33C97.9977 40.9373 98.2257 40.38 98.2257 39.658C98.2257 39.1133 98.0421 38.708 97.6747 38.442C97.3201 38.1633 96.8071 38.024 96.1357 38.024H94.1597L93.3807 41.919H95.6227ZM114.612 45.377H116.436L115.296 51.039H111.857L112.389 48.36H103.877L103.345 51.039H99.8869L101.027 45.377H101.369C102.167 45.3643 102.857 44.7943 103.44 43.667C104.023 42.5397 104.548 40.9943 105.017 39.031L105.967 35.06H116.683L114.612 45.377ZM108.19 39.639C107.835 41.0957 107.493 42.2863 107.164 43.211C106.847 44.1357 106.467 44.8577 106.024 45.377H110.907L112.389 38.043H108.57L108.19 39.639Z" fill="white"/>
<path d="M119.147 48.531C118.552 48.531 118.058 48.3473 117.665 47.98C117.285 47.6 117.095 47.125 117.095 46.555C117.095 45.871 117.317 45.32 117.76 44.902C118.216 44.4713 118.767 44.256 119.413 44.256C120.021 44.256 120.509 44.4397 120.876 44.807C121.256 45.1617 121.446 45.6367 121.446 46.232C121.446 46.9033 121.218 47.4543 120.762 47.885C120.319 48.3157 119.781 48.531 119.147 48.531Z" fill="#47915E"/>
<g clip-path="url(#clip0)">
<path d="M28.9823 19.1496C25.5488 19.1496 22.7554 21.9447 22.7554 25.3803C22.7554 28.2268 24.6736 30.6318 27.284 31.3736V50.7562C27.284 51.6947 28.0444 52.4555 28.9823 52.4555C29.9201 52.4555 30.6805 51.6947 30.6805 50.7562V31.3736C33.2909 30.6319 35.2091 28.2268 35.2091 25.3803C35.2091 21.9447 32.4158 19.1496 28.9823 19.1496V19.1496ZM28.9823 28.2125C27.4216 28.2125 26.1519 26.942 26.1519 25.3803C26.1519 23.8187 27.4216 22.5482 28.9823 22.5482C30.5429 22.5482 31.8127 23.8187 31.8127 25.3803C31.8127 26.942 30.5429 28.2125 28.9823 28.2125V28.2125Z" fill="white"/>
<path d="M21.1257 16.2955C20.4626 15.6319 19.3874 15.6319 18.7241 16.2955C13.459 21.5636 13.4582 30.0915 18.7241 35.3604C19.3874 36.0241 20.4625 36.0241 21.1257 35.3604C21.789 34.6969 21.789 33.6209 21.1257 32.9573C17.1881 29.0174 17.1874 22.6393 21.1257 18.6987C21.789 18.035 21.789 16.959 21.1257 16.2955V16.2955Z" fill="white"/>
<path d="M39.2403 16.2955C38.5772 15.632 37.5019 15.632 36.8387 16.2955C36.1754 16.959 36.1754 18.035 36.8387 18.6986C40.7674 22.6298 40.7674 29.0262 36.8387 32.9573C36.1754 33.6208 36.1754 34.6968 36.8387 35.3604C37.502 36.024 38.5771 36.024 39.2403 35.3604C44.4934 30.1043 44.4934 21.5516 39.2403 16.2955V16.2955Z" fill="white"/>
<path d="M16.0022 13.5719C16.6654 12.9084 16.6654 11.8324 16.0022 11.1688C15.3391 10.5053 14.2637 10.5053 13.6005 11.1688C5.52232 19.2519 5.52232 32.404 13.6005 40.4871C14.2635 41.1506 15.3388 41.151 16.0022 40.4871C16.6654 39.8236 16.6654 38.7476 16.0022 38.084C9.24838 31.326 9.24838 20.33 16.0022 13.5719V13.5719Z" fill="white"/>
<path d="M44.364 11.1688C43.7009 10.5053 42.6255 10.5053 41.9623 11.1688C41.2991 11.8323 41.2991 12.9083 41.9623 13.5719C48.7161 20.33 48.7161 31.326 41.9623 38.084C41.2991 38.7475 41.2991 39.8235 41.9623 40.4871C42.6257 41.1508 43.7008 41.1508 44.364 40.4871C52.4422 32.404 52.4422 19.2519 44.364 11.1688V11.1688Z" fill="white"/>
<path d="M10.8786 8.4452C11.5418 7.78169 11.5418 6.70571 10.8786 6.04208C10.2155 5.37857 9.14015 5.37857 8.47693 6.04208C-2.838 17.3638 -2.81344 34.3166 8.47693 45.6139C9.13992 46.2774 10.2152 46.2777 10.8786 45.6139C11.5418 44.9503 11.5418 43.8744 10.8786 43.2107C0.975001 33.3009 0.975001 18.3551 10.8786 8.4452V8.4452Z" fill="white"/>
<path d="M49.4875 6.04208C48.8244 5.37857 47.7491 5.37857 47.0859 6.04208C46.4226 6.70559 46.4226 7.78158 47.0859 8.4452C56.9897 18.3551 56.9897 33.3009 47.0859 43.2107C46.4226 43.8743 46.4226 44.9502 47.0859 45.6139C47.7492 46.2775 48.8243 46.2775 49.4875 45.6139C60.8023 34.2923 60.778 17.3393 49.4875 6.04208V6.04208Z" fill="white"/>
</g>
<defs>
<clipPath id="clip0">
<rect width="57.9646" height="58" fill="white"/>
</clipPath>
</defs>
</svg>
