<svg width="44" height="44" viewBox="0 0 44 44" fill="none" xmlns="http://www.w3.org/2000/svg">
<path d="M37.9812 5.5H37.1855C37.061 5.5 36.9365 5.50773 36.813 5.5232C35.1729 5.72877 34.01 7.22494 34.2155 8.86505L34.6133 12.045C34.8021 13.5419 36.0745 14.6651 37.5833 14.6667C39.0921 14.6651 40.3645 13.542 40.5533 12.045L40.9511 8.86505C40.9666 8.74148 40.9744 8.61712 40.9743 8.4926C40.9742 6.83968 39.6341 5.49983 37.9812 5.5ZM39.1315 8.63775L38.7346 11.8177C38.6682 12.3432 38.2543 12.757 37.7289 12.8234C37.093 12.9039 36.5123 12.4535 36.432 11.8177L36.035 8.63775C36.0291 8.5904 36.0261 8.5427 36.0261 8.49492C36.0255 7.854 36.5446 7.33391 37.1855 7.3333H37.9812C38.029 7.33339 38.0766 7.33631 38.124 7.34224C38.76 7.42173 39.211 8.00181 39.1315 8.63775Z" fill="white"/>
<path d="M33.4583 12.5308C32.3238 13.1887 31.5237 14.299 31.2583 15.5833H28.4166C26.8978 15.5833 25.6666 16.8145 25.6666 18.3333C25.6666 19.852 26.8978 21.0833 28.4166 21.0833H31.1666V24.7499H33V20.1666C33 19.6604 32.5896 19.2499 32.0833 19.2499H28.4166C27.9103 19.2499 27.4999 18.8395 27.4999 18.3333C27.4999 17.827 27.9103 17.4166 28.4166 17.4166H32.0833C32.5896 17.4166 33 17.0061 33 16.4999C33.0024 15.5176 33.5258 14.6103 34.375 14.1166L33.4583 12.5308Z" fill="white"/>
<path d="M22.6975 9.48506L21.3061 10.6776L26.8065 17.095L28.1978 15.9024L22.6975 9.48506Z" fill="white"/>
<path d="M23.816 27.8049C22.4657 26.2958 20.1476 26.167 18.6385 27.5172C17.1293 28.8675 17.0005 31.1856 18.3508 32.6947L19.7166 31.4719C19.0945 30.7761 19.0945 29.7238 19.7166 29.028C20.3914 28.2731 21.5504 28.2083 22.3053 28.8832C23.0601 29.5581 23.1249 30.717 22.4501 31.4719L23.8159 32.6947C25.0614 31.3027 25.0614 29.197 23.816 27.8049Z" fill="white"/>
<path d="M21.0833 31.1667C17.5395 31.1667 14.6666 34.0396 14.6666 37.5834V42.1667H16.5V37.5834C16.5 35.0521 18.552 33.0001 21.0833 33.0001C23.6146 33.0001 25.6666 35.0521 25.6666 37.5834V42.1667H27.5V37.5834C27.5 34.0396 24.6272 31.1667 21.0833 31.1667Z" fill="white"/>
<path d="M24.75 37.5833H22.9167V42.1666H24.75V37.5833Z" fill="white"/>
<path d="M12.8159 27.8049C11.4657 26.2958 9.14759 26.167 7.63844 27.5172C6.1293 28.8675 6.00047 31.1856 7.35072 32.6947L8.71653 31.4719C8.09443 30.7761 8.09443 29.7238 8.71653 29.028C9.3914 28.2731 10.5503 28.2083 11.3052 28.8832C12.0601 29.5581 12.1249 30.717 11.45 31.4719L12.8158 32.6947C14.0613 31.3027 14.0613 29.197 12.8159 27.8049Z" fill="white"/>
<path d="M10.0833 31.1667C6.53949 31.1667 3.6666 34.0396 3.6666 37.5834V42.1667H5.49999V37.5834C5.49999 35.0521 7.552 33.0001 10.0833 33.0001C12.6146 33.0001 14.6666 35.0521 14.6666 37.5834V42.1667H16.5V37.5834C16.5 34.0396 13.6272 31.1667 10.0833 31.1667Z" fill="white"/>
<path d="M8.24999 37.5833H6.41669V42.1666H8.24999V37.5833Z" fill="white"/>
<path d="M34.816 27.8049C33.4657 26.2958 31.1476 26.167 29.6385 27.5172C28.1293 28.8675 28.0005 31.1856 29.3508 32.6947L30.7166 31.4719C30.0945 30.7761 30.0945 29.7238 30.7166 29.028C31.3914 28.2731 32.5504 28.2083 33.3053 28.8832C34.0601 29.5581 34.1249 30.717 33.4501 31.4719L34.8159 32.6947C36.0614 31.3027 36.0614 29.197 34.816 27.8049Z" fill="white"/>
<path d="M41.7083 12.5308L40.7916 14.1166C41.6408 14.6104 42.1642 15.5176 42.1666 16.4999V40.3332H38.5V37.5832C38.5 34.0394 35.6272 31.1665 32.0833 31.1665C28.5395 31.1665 25.6666 34.0393 25.6666 37.5832V42.1665H27.5V37.5832C27.5 35.052 29.552 33 32.0833 33C34.6146 33 36.6666 35.052 36.6666 37.5833V41.25C36.6666 41.7562 37.077 42.1667 37.5833 42.1667H43.0833C43.5896 42.1667 44 41.7562 44 41.25V16.5C43.9964 14.8635 43.1238 13.3522 41.7083 12.5308Z" fill="white"/>
<path d="M30.25 37.5833H28.4167V42.1666H30.25V37.5833Z" fill="white"/>
<path d="M39.6852 15.8519L37.5833 17.9539L35.4813 15.8519L34.1852 17.1481L36.9352 19.8981C37.107 20.0701 37.3402 20.1667 37.5832 20.1667C37.8263 20.1666 38.0594 20.07 38.2313 19.8981L40.9813 17.1481L39.6852 15.8519Z" fill="white"/>
<path d="M38.5 18.3333H36.6667V28.4165H38.5V18.3333Z" fill="white"/>
<path d="M37.5833 1.83325H0.916695C0.410437 1.83325 0 2.24369 0 2.74995V23.8333C0 24.3395 0.410437 24.7499 0.916695 24.7499H29.3334V22.9166H1.83339V3.66664H36.6667V6.41664H38.5V2.74995C38.5 2.24369 38.0896 1.83325 37.5833 1.83325Z" fill="white"/>
<path d="M1.8333 23.8333H0V29.3333H1.8333V23.8333Z" fill="white"/>
<path d="M1.8333 31.1667H0V33.0001H1.8333V31.1667Z" fill="white"/>
<path d="M1.8333 34.8333H0V36.6666H1.8333V34.8333Z" fill="white"/>
<path d="M18.3333 7.3333V5.5H4.58329C4.07703 5.5 3.6666 5.91044 3.6666 6.4167V10.0834C3.6666 10.5896 4.07703 11.0001 4.58329 11.0001H18.3333V9.16678H5.49999V7.3333H18.3333Z" fill="white"/>
<path d="M11 12.8333H3.66669V14.6666H11V12.8333Z" fill="white"/>
<path d="M14.6666 12.8333H12.8333V14.6666H14.6666V12.8333Z" fill="white"/>
<path d="M18.3333 12.8333H16.5V14.6666H18.3333V12.8333Z" fill="white"/>
<path d="M5.49999 16.5H3.66669V18.3333H5.49999V16.5Z" fill="white"/>
<path d="M9.16662 16.5H7.33331V18.3333H9.16662V16.5Z" fill="white"/>
<path d="M18.3333 16.5H11V18.3333H18.3333V16.5Z" fill="white"/>
</svg>
