<svg width="79" height="79" viewBox="0 0 79 79" fill="none" xmlns="http://www.w3.org/2000/svg">
<path d="M78.6431 39.5C78.6431 61.3152 61.1173 79 39.4981 79C17.879 79 0.353149 61.3152 0.353149 39.5C0.353149 17.6848 17.879 0 39.4981 0C61.1173 0 78.6431 17.6848 78.6431 39.5ZM2.98342 39.5C2.98342 59.8494 19.3316 76.3459 39.4981 76.3459C59.6647 76.3459 76.0129 59.8494 76.0129 39.5C76.0129 19.1506 59.6647 2.65413 39.4981 2.65413C19.3316 2.65413 2.98342 19.1506 2.98342 39.5Z" fill="#47915E"/>
<path d="M54.9812 22.5H54.1855C54.061 22.5 53.9365 22.5077 53.813 22.5232C52.1729 22.7288 51.01 24.2249 51.2155 25.8651L51.6133 29.045C51.8021 30.5419 53.0745 31.6651 54.5833 31.6667C56.0921 31.6651 57.3645 30.542 57.5533 29.045L57.9511 25.8651C57.9666 25.7415 57.9744 25.6171 57.9743 25.4926C57.9742 23.8397 56.6341 22.4998 54.9812 22.5ZM56.1315 25.6378L55.7346 28.8177C55.6682 29.3432 55.2543 29.757 54.7289 29.8234C54.093 29.9039 53.5123 29.4535 53.432 28.8177L53.035 25.6378C53.0291 25.5904 53.0261 25.5427 53.0261 25.4949C53.0255 24.854 53.5446 24.3339 54.1855 24.3333H54.9812C55.029 24.3334 55.0766 24.3363 55.124 24.3422C55.76 24.4217 56.211 25.0018 56.1315 25.6378Z" fill="#47915E"/>
<path d="M50.4583 29.5308C49.3238 30.1887 48.5237 31.299 48.2583 32.5833H45.4166C43.8978 32.5833 42.6666 33.8145 42.6666 35.3333C42.6666 36.852 43.8978 38.0833 45.4166 38.0833H48.1666V41.7499H50V37.1666C50 36.6604 49.5896 36.2499 49.0833 36.2499H45.4166C44.9103 36.2499 44.4999 35.8395 44.4999 35.3333C44.4999 34.827 44.9103 34.4166 45.4166 34.4166H49.0833C49.5896 34.4166 50 34.0061 50 33.4999C50.0024 32.5176 50.5258 31.6103 51.375 31.1166L50.4583 29.5308Z" fill="#47915E"/>
<path d="M39.6975 26.4851L38.3061 27.6776L43.8065 34.095L45.1978 32.9024L39.6975 26.4851Z" fill="#47915E"/>
<path d="M40.816 44.8049C39.4657 43.2958 37.1476 43.167 35.6385 44.5172C34.1293 45.8675 34.0005 48.1856 35.3508 49.6947L36.7166 48.4719C36.0945 47.7761 36.0945 46.7238 36.7166 46.028C37.3914 45.2731 38.5504 45.2083 39.3053 45.8832C40.0601 46.5581 40.1249 47.717 39.4501 48.4719L40.8159 49.6947C42.0614 48.3027 42.0614 46.197 40.816 44.8049Z" fill="#47915E"/>
<path d="M38.0833 48.1667C34.5395 48.1667 31.6666 51.0396 31.6666 54.5834V59.1667H33.5V54.5834C33.5 52.0521 35.552 50.0001 38.0833 50.0001C40.6146 50.0001 42.6666 52.0521 42.6666 54.5834V59.1667H44.5V54.5834C44.5 51.0396 41.6272 48.1667 38.0833 48.1667Z" fill="#47915E"/>
<path d="M41.75 54.5833H39.9167V59.1666H41.75V54.5833Z" fill="#47915E"/>
<path d="M29.8159 44.8049C28.4657 43.2958 26.1476 43.167 24.6384 44.5172C23.1293 45.8675 23.0005 48.1856 24.3507 49.6947L25.7165 48.4719C25.0944 47.7761 25.0944 46.7238 25.7165 46.028C26.3914 45.2731 27.5503 45.2083 28.3052 45.8832C29.0601 46.5581 29.1249 47.717 28.45 48.4719L29.8158 49.6947C31.0613 48.3027 31.0613 46.197 29.8159 44.8049Z" fill="#47915E"/>
<path d="M27.0833 48.1667C23.5395 48.1667 20.6666 51.0396 20.6666 54.5834V59.1667H22.5V54.5834C22.5 52.0521 24.552 50.0001 27.0833 50.0001C29.6146 50.0001 31.6666 52.0521 31.6666 54.5834V59.1667H33.5V54.5834C33.5 51.0396 30.6272 48.1667 27.0833 48.1667Z" fill="#47915E"/>
<path d="M25.25 54.5833H23.4167V59.1666H25.25V54.5833Z" fill="#47915E"/>
<path d="M51.816 44.8049C50.4657 43.2958 48.1476 43.167 46.6385 44.5172C45.1293 45.8675 45.0005 48.1856 46.3508 49.6947L47.7166 48.4719C47.0945 47.7761 47.0945 46.7238 47.7166 46.028C48.3914 45.2731 49.5504 45.2083 50.3053 45.8832C51.0601 46.5581 51.1249 47.717 50.4501 48.4719L51.8159 49.6947C53.0614 48.3027 53.0614 46.197 51.816 44.8049Z" fill="#47915E"/>
<path d="M58.7083 29.5308L57.7916 31.1166C58.6408 31.6104 59.1642 32.5176 59.1666 33.4999V57.3332H55.5V54.5832C55.5 51.0394 52.6272 48.1665 49.0833 48.1665C45.5395 48.1665 42.6666 51.0393 42.6666 54.5832V59.1665H44.5V54.5832C44.5 52.052 46.552 50 49.0833 50C51.6146 50 53.6666 52.052 53.6666 54.5833V58.25C53.6666 58.7562 54.077 59.1667 54.5833 59.1667H60.0833C60.5896 59.1667 61 58.7562 61 58.25V33.5C60.9964 31.8635 60.1238 30.3522 58.7083 29.5308Z" fill="#47915E"/>
<path d="M47.25 54.5833H45.4167V59.1666H47.25V54.5833Z" fill="#47915E"/>
<path d="M56.6852 32.8519L54.5833 34.9539L52.4813 32.8519L51.1852 34.1481L53.9352 36.8981C54.107 37.0701 54.3402 37.1667 54.5832 37.1667C54.8263 37.1666 55.0594 37.07 55.2313 36.8981L57.9813 34.1481L56.6852 32.8519Z" fill="#47915E"/>
<path d="M55.5 35.3333H53.6667V45.4165H55.5V35.3333Z" fill="#47915E"/>
<path d="M54.5833 18.8333H17.9167C17.4104 18.8333 17 19.2437 17 19.7499V40.8333C17 41.3395 17.4104 41.7499 17.9167 41.7499H46.3334V39.9166H18.8334V20.6666H53.6667V23.4166H55.5V19.7499C55.5 19.2437 55.0896 18.8333 54.5833 18.8333Z" fill="#47915E"/>
<path d="M18.8333 40.8333H17V46.3333H18.8333V40.8333Z" fill="#47915E"/>
<path d="M18.8333 48.1667H17V50.0001H18.8333V48.1667Z" fill="#47915E"/>
<path d="M18.8333 51.8333H17V53.6666H18.8333V51.8333Z" fill="#47915E"/>
<path d="M35.3333 24.3333V22.5H21.5833C21.077 22.5 20.6666 22.9104 20.6666 23.4167V27.0834C20.6666 27.5896 21.077 28.0001 21.5833 28.0001H35.3333V26.1668H22.5V24.3333H35.3333Z" fill="#47915E"/>
<path d="M28 29.8333H20.6667V31.6666H28V29.8333Z" fill="#47915E"/>
<path d="M31.6666 29.8333H29.8333V31.6666H31.6666V29.8333Z" fill="#47915E"/>
<path d="M35.3333 29.8333H33.5V31.6666H35.3333V29.8333Z" fill="#47915E"/>
<path d="M22.5 33.5H20.6667V35.3333H22.5V33.5Z" fill="#47915E"/>
<path d="M26.1666 33.5H24.3333V35.3333H26.1666V33.5Z" fill="#47915E"/>
<path d="M35.3333 33.5H28V35.3333H35.3333V33.5Z" fill="#47915E"/>
</svg>
