<svg width="16" height="14" viewBox="0 0 16 14" fill="none" xmlns="http://www.w3.org/2000/svg">
<g clip-path="url(#clip0)">
<path d="M15.5796 9.85624L13.5921 8.23665C13.0618 7.80462 12.1353 7.80389 11.6042 8.23665L11.2728 8.50666L15.2483 11.7454L15.5796 11.4755C16.1299 11.0271 16.1281 10.3023 15.5796 9.85624Z" fill="#E93F34"/>
<path d="M10.5918 9.03122C10.1736 9.29518 9.57699 9.28464 9.19484 8.97262L5.26512 5.76882C4.8821 5.45677 4.8692 4.97034 5.19319 4.63045L1.22679 1.39917C-0.479537 3.0196 -0.412822 5.46125 1.47041 6.99554L7.68913 12.0642C9.49631 13.5365 12.4565 13.7318 14.5584 12.2626L10.5918 9.03122Z" fill="#E93F34"/>
<path d="M6.16872 2.1868L4.18123 0.567218C3.65094 0.13519 2.72446 0.134452 2.1933 0.567218L1.86188 0.83723L5.83742 4.07597L6.16872 3.80603C6.71899 3.35772 6.71718 2.63291 6.16872 2.1868Z" fill="#E93F34"/>
</g>
<defs>
<clipPath id="clip0">
<rect width="15.9917" height="13.0286" fill="white" transform="translate(0 0.24292)"/>
</clipPath>
</defs>
</svg>
